# xmcd
#
# Track frame offsets:
#  150
#  10555
#  25008
#  34088
#  44913
#  59039
#  68339
#  78271
#
# Disc length: 1220 seconds
#
# Revision: 0
# Processed by: cddbd v1.5.2PL0 Copyright (c) Steve Scherf et al.
# Submitted via: AltoMP3_Maker 3.0
#
DISCID=5c04c208
DTITLE=Abby Hollander - Abby Hollander Band
DYEAR=1900
DGENRE=
TTITLE0=Green Highway Home
TTITLE1=Darlin' City
TTITLE2=Drivin' Nails in My Coffin
TTITLE3=Builder and the Breaker
TTITLE4=High and Lonesome
TTITLE5=Let the Whole World Talk
TTITLE6=Loneliness Here
TTITLE7=Rising Water Line
EXTD=
EXTT0=
EXTT1=
EXTT2=
EXTT3=
EXTT4=
EXTT5=
EXTT6=
EXTT7=
PLAYORDER=
